# xmcd
#
# Track frame offsets:
# 150
# 15177
# 31447
# 51587
# 70545
# 91347
# 111442
# 135250
# 155700
# 176557
# 218995
# 242032
#
# Disc length: 3487 seconds
#
# Revision: 1
# Processed by: cddbd v1.5.1PL0 Copyright (c) Steve Scherf et al.
# Submitted via: Easy CD Ripper v2.36
#
DISCID=9f0d9d0c
DTITLE=Bloodline - Bloodline
DYEAR=1994
DGENRE=Blues
TTITLE0=Stone Cold Hearted - Bloodline
TTITLE1=Dixie Peach - Bloodline
TTITLE2=Cell Block 7 - Bloodline
TTITLE3=The Storm - Bloodline
TTITLE4=The Good Luck You're Having - Bloodline
TTITLE5=Honest Crime - Bloodline
TTITLE6=So Far Away - Bloodline
TTITLE7=Calling Me Back - Bloodline
TTITLE8=Bad Girls - Bloodline
TTITLE9=Since You're Gone - Bloodline
TTITLE10=Trouble Is My Business - Bloodline
TTITLE11=Get Off Your Back - Bloodline
EXTD=
EXTT0=
EXTT1=
EXTT2=
EXTT3=
EXTT4=
EXTT5=
EXTT6=
EXTT7=
EXTT8=
EXTT9=
EXTT10=
EXTT11=
PLAYORDER=
